HIERARCHY
ROOT hip
{
	OFFSET 0.000000 0.000000 0.000000
	CHANNELS 6 Xposition Yposition Zposition Xrotation Zrotation Yrotation 
	JOINT abdomen
	{
		OFFSET 0.000000 3.422050 0.000000
		CHANNELS 3 Xrotation Zrotation Yrotation 
		JOINT chest
		{
			OFFSET 0.000000 8.486693 -0.684411
			CHANNELS 3 Xrotation Zrotation Yrotation 
			JOINT neck
			{
				OFFSET 0.000000 10.266162 -0.273764
				CHANNELS 3 Xrotation Zrotation Yrotation 
				JOINT head
				{
					OFFSET 0.000000 3.148285 0.000000
					CHANNELS 3 Xrotation Zrotation Yrotation 
					End Site
					{
						OFFSET 0.000000 3.148289 0.000000
					}
				}
			}
			JOINT lCollar
			{
				OFFSET 3.422053 6.707223 -0.821293
				CHANNELS 3 Yrotation Zrotation Xrotation 
				JOINT lShldr
				{
					OFFSET 3.285171 0.000000 0.000000
					CHANNELS 3 Zrotation Yrotation Xrotation 
					JOINT lForeArm
					{
						OFFSET 10.129278 0.000000 0.000000
						CHANNELS 3 Yrotation Zrotation Xrotation 
						JOINT lHand
						{
							OFFSET 8.486692 0.000000 0.000000
							CHANNELS 3 Zrotation Yrotation Xrotation 
							End Site
							{
								OFFSET 4.106464 0.000000 0.000000
							}
						}
					}
				}
			}
			JOINT rCollar
			{
				OFFSET -3.558935 6.707223 -0.821293
				CHANNELS 3 Yrotation Zrotation Xrotation 
				JOINT rShldr
				{
					OFFSET -3.148289 0.000000 0.000000
					CHANNELS 3 Zrotation Yrotation Xrotation 
					JOINT rForeArm
					{
						OFFSET -10.266159 0.000000 0.000000
						CHANNELS 3 Yrotation Zrotation Xrotation 
						JOINT rHand
						{
							OFFSET -8.349810 0.000000 0.000000
							CHANNELS 3 Zrotation Yrotation Xrotation 
							End Site
							{
								OFFSET -4.106464 0.000000 0.000000
							}
						}
					}
				}
			}
		}
	}
	JOINT lThigh
	{
		OFFSET 5.338403 -1.642589 1.368821
		CHANNELS 3 Xrotation Zrotation Yrotation 
		JOINT lShin
		{
			OFFSET -2.053232 -20.121670 0.000000
			CHANNELS 3 Xrotation Zrotation Yrotation 
			JOINT lFoot
			{
				OFFSET 0.000000 -19.300380 -1.231939
				CHANNELS 3 Xrotation Yrotation Zrotation 
				End Site
				{
					OFFSET 0.000000 -2.463878 4.653993
				}
			}
		}
	}
	JOINT rThigh
	{
		OFFSET -5.338403 -1.642589 1.368821
		CHANNELS 3 Xrotation Zrotation Yrotation 
		JOINT rShin
		{
			OFFSET 2.053232 -20.121670 0.000000
			CHANNELS 3 Xrotation Zrotation Yrotation 
			JOINT rFoot
			{
				OFFSET 0.000000 -19.300380 -1.231939
				CHANNELS 3 Xrotation Yrotation Zrotation 
				End Site
				{
					OFFSET 0.000000 -2.463878 4.653993
				}
			}
		}
	}
}
MOTION
Frames: 8
Frame Time: 0.049939
-25.552809 18.312105 10.582178 -0.000379 -42.000168 96.995255 20.310528 -3.646962 -1.272596 22.019012 0.817123 0.030152 -44.803692 -12.002652 24.999352 9.197610 0.000000 0.000000 29.589489 -9.733498 -0.174791 -112.431602 -58.202419 13.374039 -90.156158 -19.466881 -41.187199 -22.748232 8.161772 -43.915131 5.435840 -36.724487 1.562869 -56.412525 64.839500 -56.781971 27.898108 -8.959931 -109.883537 -25.729429 -4.763303 6.492039 -83.419907 4.717780 4.543664 133.082977 4.712175 -1.757775 57.613323 16.312998 8.822193 -87.627930 -5.459182 0.518318 134.220123 -5.091718 1.734934 63.351009 -3.417764 4.976508 
-25.552809 18.312105 10.582178 -0.000379 -42.000168 96.995255 19.836157 -3.627198 -1.232741 21.960110 0.803631 0.024888 -43.936035 -12.002474 24.999361 9.731046 0.000000 0.000000 29.138752 -9.614185 -0.225385 -112.431602 -58.202419 13.374039 -89.196190 -19.213236 -40.885372 -23.089796 8.077414 -43.541481 4.756024 -36.181900 1.165307 -56.145763 65.027077 -56.559322 29.423355 -8.805213 -109.783752 -26.262999 -4.763259 6.492042 -83.419907 4.717780 4.543664 133.082977 4.712175 -1.757775 57.613323 16.312998 8.822193 -87.627930 -5.459182 0.518318 134.220123 -5.091718 1.734934 63.351009 -3.417764 4.976508 
-25.552809 18.312105 10.582178 -0.000379 -42.000168 96.995255 19.361811 -3.607106 -1.193053 21.901213 0.790134 0.019637 -43.068321 -12.002291 24.999365 10.264492 0.000000 0.000000 28.688259 -9.494479 -0.275009 -112.431602 -58.202419 13.374039 -88.239044 -18.954836 -40.588512 -23.431843 7.995263 -43.167393 4.085488 -35.635548 0.778402 -55.875328 65.214172 -56.332966 30.947952 -8.647892 -109.688164 -26.796579 -4.763217 6.492046 -83.419907 4.717780 4.543664 133.082977 4.712175 -1.757775 57.613323 16.312998 8.822193 -87.627930 -5.459182 0.518318 134.220123 -5.091718 1.734934 63.351009 -3.417764 4.976508 
-25.552809 18.312105 10.582178 -0.000379 -42.000168 96.995255 18.887491 -3.586686 -1.153534 21.842314 0.776632 0.014401 -42.200676 -12.002117 24.999384 10.797926 0.000000 0.000000 28.238049 -9.374399 -0.323659 -112.431602 -58.202419 13.374039 -87.284882 -18.691814 -40.296741 -23.774349 7.915327 -42.792896 3.424042 -35.085617 0.401972 -55.601204 65.400810 -56.102886 32.471382 -8.488144 -109.596924 -27.330147 -4.763174 6.492049 -83.419907 4.717780 4.543664 133.082977 4.712175 -1.757775 57.613323 16.312998 8.822193 -87.627930 -5.459182 0.518318 134.220123 -5.091718 1.734934 63.351009 -3.417764 4.976508 
-25.552809 18.312105 10.582178 -0.000379 -42.000168 96.995255 18.413231 -3.565943 -1.114189 21.783417 0.763124 0.009178 -41.333160 -12.001936 24.999393 11.331326 0.000000 0.000000 27.788109 -9.253947 -0.371332 -112.431602 -58.202419 13.374039 -86.333794 -18.424288 -40.010128 -24.117289 7.837618 -42.418026 2.771496 -34.532272 0.035833 -55.323353 65.587021 -55.869053 33.993118 -8.326140 -109.510086 -27.863674 -4.763131 6.492050 -83.419907 4.717780 4.543664 133.082977 4.712175 -1.757775 57.613323 16.312998 8.822193 -87.627930 -5.459182 0.518318 134.220123 -5.091718 1.734934 63.351009 -3.417764 4.976508 
-25.552809 18.312105 10.582178 -0.000379 -42.000168 96.995255 17.939026 -3.544875 -1.075022 21.724522 0.749611 0.003969 -40.465900 -12.001760 24.999411 11.864669 0.000000 0.000000 27.338469 -9.133142 -0.418027 -112.431602 -58.202419 13.374039 -85.385933 -18.152390 -39.728760 -24.460638 7.762146 -42.042816 2.127662 -33.975697 -0.320197 -55.041592 65.772705 -55.631275 35.512630 -8.162060 -109.427727 -28.397156 -4.763088 6.492053 -83.419907 4.717780 4.543664 133.082977 4.712175 -1.757775 57.613323 16.312998 8.822193 -87.627930 -5.459182 0.518318 134.220123 -5.091718 1.734934 63.351009 -3.417764 4.976508 
-25.552809 18.312105 10.582178 -0.000379 -42.000168 96.995255 17.464905 -3.523488 -1.036035 21.665630 0.736093 -0.001225 -39.598984 -12.001578 24.999428 12.397930 0.000000 0.000000 26.889126 -9.011991 -0.463738 -112.431602 -58.202419 13.374039 -84.441422 -17.876255 -39.452744 -24.804352 7.688909 -41.667267 1.492353 -33.416042 -0.666299 -54.755932 65.957916 -55.389568 37.029419 -7.996079 -109.349907 -28.930552 -4.763045 6.492055 -83.419907 4.717780 4.543664 133.082977 4.712175 -1.757775 57.613323 16.312998 8.822193 -87.627930 -5.459182 0.518318 134.220123 -5.091718 1.734934 63.351009 -3.417764 4.976508 
-25.552809 18.312105 10.582178 -0.000379 -42.000168 96.995255 16.990887 -3.501783 -0.997235 21.606733 0.722569 -0.006406 -38.732536 -12.001406 24.999460 12.931090 0.000000 0.000000 26.440086 -8.890506 -0.508466 -112.431602 -58.202419 13.374039 -83.500343 -17.596001 -39.182117 -25.148422 7.617925 -41.291428 0.865382 -32.853477 -1.002652 -54.466270 66.142624 -55.143829 38.542961 -7.828389 -109.276703 -29.463852 -4.763003 6.492059 -83.419907 4.717780 4.543664 133.082977 4.712175 -1.757775 57.613323 16.312998 8.822193 -87.627930 -5.459182 0.518318 134.220123 -5.091718 1.734934 63.351009 -3.417764 4.976508 
